# xmcd
#
# Track frame offsets: 
#        150
#        14381
#        24754
#        35526
#        51169
#        65155
#        77347
#        88335
#        99839
#        110565
#        122841
#        132884
#        144127
#        155017
#        164878
#        174400
#        185744
#
# Disc length: 2695 seconds
#
# Revision: 0
# Processed by: cddbd v1.4PL0 Copyright (c) Steve Scherf et al.
# Submitted via: ExactAudioCopy v0.95a1
#
DISCID=e30a8511
DTITLE=Adam Hurt - Intrigue
DYEAR=2002
DGENRE=Bluegrass
TTITLE0=Cumberland Gap
TTITLE1=Half Past Four
TTITLE2=Forked Deer
TTITLE3=Fall of Richmond
TTITLE4=Spider Bit the Baby
TTITLE5=Ducks on the Mill Pond
TTITLE6=Rock the Cradle, Joe
TTITLE7=Red Haired Boy - The Musical Preist
TTITLE8=Black Eyed Suzie
TTITLE9=Sally and the Garden
TTITLE10=Three Thin Dimes
TTITLE11=Metsakukkia
TTITLE12=Sugar Hill
TTITLE13=Shakin' Down the Acorns
TTITLE14=Rocky Mountain Goat
TTITLE15=War Field
TTITLE16=Snowdrop
EXTD=
EXTT0=
EXTT1=
EXTT2=
EXTT3=
EXTT4=
EXTT5=
EXTT6=
EXTT7=
EXTT8=
EXTT9=
EXTT10=
EXTT11=
EXTT12=
EXTT13=
EXTT14=
EXTT15=
EXTT16=
PLAYORDER=
